<svg width="845" height="495" viewBox="0 0 845 495" fill="none" xmlns="http://www.w3.org/2000/svg">
    <g clip-path="url(#clip0)">
        <path d="M47.592 463.058C46.5714 463.079 45.5844 463.426 44.7755 464.049C42.3751 457.705 38.659 453.628 34.4842 453.628C30.3094 453.628 26.5933 457.705 24.1929 464.049C23.3841 463.426 22.397 463.079 21.3764 463.058C16.6335 463.058 12.7886 471.079 12.7886 480.974H56.1799C56.1799 471.079 52.3349 463.058 47.592 463.058Z" fill="white"/>
        <path d="M220 479.974H0V481.974H220V479.974Z" fill="#3F3D56"/>
        <path d="M829.592 421.032C828.571 421.053 827.584 421.4 826.776 422.023C824.375 415.679 820.659 411.602 816.484 411.602C812.309 411.602 808.593 415.679 806.193 422.023C805.384 421.4 804.397 421.053 803.376 421.032C798.634 421.032 794.789 429.053 794.789 438.948H838.18C838.18 429.053 834.335 421.032 829.592 421.032Z" fill="white"/>
        <path d="M736.229 91.8533H526.739V87.5356H431.748V91.8533H221.395C219.534 91.8533 217.691 92.2198 215.972 92.9319C214.253 93.6441 212.691 94.6879 211.375 96.0037C210.059 97.3196 209.015 98.8817 208.303 100.601C207.591 102.32 207.225 104.163 207.225 106.024V392.88C207.225 396.638 208.718 400.242 211.375 402.9C214.032 405.557 217.637 407.05 221.395 407.05H736.229C739.987 407.05 743.591 405.557 746.249 402.9C748.906 400.242 750.399 396.638 750.399 392.88V106.024C750.399 104.163 750.033 102.32 749.321 100.601C748.608 98.8817 747.565 97.3196 746.249 96.0037C744.933 94.6879 743.371 93.6441 741.652 92.9319C739.932 92.2198 738.09 91.8533 736.229 91.8533Z" fill="#3F3D56"/>
        <path opacity="0.2" d="M731.397 116.892H226.227V401.872H731.397V116.892Z" fill="black"/>
        <path d="M478.38 109.124C481.242 109.124 483.561 106.805 483.561 103.943C483.561 101.081 481.242 98.7617 478.38 98.7617C475.518 98.7617 473.199 101.081 473.199 103.943C473.199 106.805 475.518 109.124 478.38 109.124Z" fill="white"/>
        <path d="M844.5 436.948H111.5V438.948H844.5V436.948Z" fill="#3F3D56"/>
        <path d="M547.832 223.366V202.282C547.832 198.885 547.163 195.521 545.863 192.382C544.563 189.244 542.658 186.392 540.256 183.99C537.853 181.588 535.002 179.682 531.863 178.382C528.724 177.082 525.361 176.413 521.963 176.413H500.88C500.88 173.567 491.734 171.235 480.112 171.014V145.588C483.758 145.129 487.092 143.297 489.435 140.466C491.779 137.635 492.955 134.018 492.725 130.35C492.495 126.682 490.875 123.24 488.197 120.724C485.518 118.208 481.981 116.807 478.306 116.807C474.631 116.807 471.094 118.208 468.416 120.724C465.737 123.24 464.118 126.682 463.887 130.35C463.657 134.018 464.834 137.635 467.177 140.466C469.52 143.297 472.854 145.129 476.5 145.588V171.014C464.879 171.235 455.733 173.567 455.733 176.413H431.037C427.64 176.413 424.276 177.082 421.137 178.382C417.999 179.682 415.147 181.588 412.745 183.99C410.343 186.392 408.437 189.244 407.137 192.382C405.837 195.521 405.168 198.885 405.168 202.282V223.366C402.176 223.366 399.75 233.472 399.75 245.939C399.75 258.406 402.176 268.513 405.168 268.513V293.208C405.168 296.605 405.837 299.969 407.137 303.108C408.437 306.246 410.343 309.098 412.745 311.5C415.147 313.902 417.999 315.808 421.137 317.108C424.276 318.408 427.64 319.077 431.037 319.077H521.963C525.361 319.077 528.724 318.408 531.863 317.108C535.002 315.808 537.853 313.902 540.256 311.5C542.658 309.098 544.563 306.246 545.863 303.108C547.163 299.969 547.832 296.605 547.832 293.208V268.513C550.824 268.513 553.25 258.406 553.25 245.939C553.25 233.472 550.824 223.366 547.832 223.366Z" fill="white"/>
        <path d="M436.216 184.539H516.784C522.863 184.539 528.694 186.954 532.992 191.253C537.291 195.552 539.706 201.382 539.706 207.461V288.029C539.706 294.108 537.291 299.938 532.992 304.237C528.694 308.536 522.863 310.951 516.784 310.951H436.216C430.137 310.951 424.307 308.536 420.008 304.237C415.71 299.938 413.295 294.108 413.295 288.029V207.461C413.295 201.382 415.71 195.552 420.008 191.253C424.307 186.954 430.137 184.539 436.216 184.539Z" fill="#3F3D56"/>
        <path d="M447.606 244.585C443.297 244.58 439.166 242.866 436.119 239.819C433.072 236.772 431.358 232.641 431.353 228.332C431.353 228.092 431.448 227.863 431.618 227.693C431.787 227.524 432.017 227.429 432.256 227.429C432.496 227.429 432.725 227.524 432.895 227.693C433.064 227.863 433.159 228.092 433.159 228.332C433.159 232.163 434.681 235.838 437.391 238.547C440.1 241.257 443.775 242.779 447.606 242.779C451.438 242.779 455.112 241.257 457.822 238.547C460.531 235.838 462.053 232.163 462.053 228.332C462.053 228.092 462.148 227.863 462.318 227.693C462.487 227.524 462.717 227.429 462.956 227.429C463.196 227.429 463.425 227.524 463.595 227.693C463.764 227.863 463.859 228.092 463.859 228.332C463.854 232.641 462.14 236.772 459.093 239.819C456.046 242.866 451.915 244.58 447.606 244.585Z" fill="white"/>
        <path d="M476.5 275.285C473.149 275.281 469.936 273.948 467.566 271.578C465.196 269.208 463.863 265.995 463.859 262.643C463.859 262.404 463.954 262.174 464.124 262.005C464.293 261.836 464.523 261.741 464.762 261.741C465.001 261.741 465.231 261.836 465.401 262.005C465.57 262.174 465.665 262.404 465.665 262.643C465.665 265.517 466.807 268.273 468.839 270.305C470.871 272.337 473.627 273.479 476.5 273.479C479.374 273.479 482.13 272.337 484.162 270.305C486.194 268.273 487.336 265.517 487.336 262.643C487.336 262.404 487.431 262.174 487.6 262.005C487.769 261.836 487.999 261.741 488.238 261.741C488.478 261.741 488.708 261.836 488.877 262.005C489.046 262.174 489.141 262.404 489.141 262.643C489.138 265.995 487.805 269.208 485.435 271.578C483.065 273.948 479.852 275.281 476.5 275.285Z" fill="white"/>
        <path d="M505.394 244.585C501.085 244.58 496.954 242.866 493.907 239.819C490.86 236.772 489.146 232.641 489.141 228.332C489.141 228.092 489.236 227.863 489.406 227.693C489.575 227.524 489.805 227.429 490.044 227.429C490.284 227.429 490.513 227.524 490.683 227.693C490.852 227.863 490.947 228.092 490.947 228.332C490.947 232.163 492.469 235.838 495.179 238.547C497.888 241.257 501.563 242.779 505.394 242.779C509.226 242.779 512.9 241.257 515.61 238.547C518.319 235.838 519.841 232.163 519.841 228.332C519.841 228.092 519.936 227.863 520.106 227.693C520.275 227.524 520.505 227.429 520.744 227.429C520.984 227.429 521.213 227.524 521.383 227.693C521.552 227.863 521.647 228.092 521.647 228.332C521.642 232.641 519.928 236.772 516.881 239.819C513.834 242.866 509.703 244.58 505.394 244.585Z" fill="white"/>
        <path d="M447.606 237.361C452.094 237.361 455.733 233.723 455.733 229.235C455.733 224.747 452.094 221.108 447.606 221.108C443.118 221.108 439.48 224.747 439.48 229.235C439.48 233.723 443.118 237.361 447.606 237.361Z" fill="white"/>
        <path d="M505.394 237.361C509.882 237.361 513.521 233.723 513.521 229.235C513.521 224.747 509.882 221.108 505.394 221.108C500.906 221.108 497.268 224.747 497.268 229.235C497.268 233.723 500.906 237.361 505.394 237.361Z" fill="white"/>
        <path d="M476.5 270.77C480.49 270.77 483.724 269.153 483.724 267.158C483.724 265.163 480.49 263.546 476.5 263.546C472.511 263.546 469.277 265.163 469.277 267.158C469.277 269.153 472.511 270.77 476.5 270.77Z" fill="white"/>
        <path d="M764.583 396.687H715.281V393.135C715.281 393.043 715.263 392.951 715.228 392.866C715.192 392.78 715.141 392.703 715.075 392.637C715.01 392.572 714.932 392.52 714.847 392.484C714.761 392.449 714.669 392.431 714.577 392.431H697.673C697.581 392.431 697.489 392.449 697.404 392.484C697.318 392.52 697.241 392.572 697.175 392.637C697.11 392.703 697.058 392.78 697.023 392.866C696.987 392.951 696.969 393.043 696.969 393.135V396.687H686.404V393.135C686.404 393.043 686.386 392.951 686.351 392.866C686.315 392.78 686.264 392.703 686.198 392.637C686.133 392.572 686.055 392.52 685.97 392.484C685.884 392.449 685.793 392.431 685.7 392.431H668.797C668.704 392.431 668.612 392.449 668.527 392.484C668.442 392.52 668.364 392.572 668.298 392.637C668.233 392.703 668.181 392.78 668.146 392.866C668.11 392.951 668.092 393.043 668.092 393.135V396.687H657.527V393.135C657.527 393.043 657.509 392.951 657.474 392.866C657.438 392.78 657.387 392.703 657.321 392.637C657.256 392.572 657.178 392.52 657.093 392.484C657.007 392.449 656.916 392.431 656.823 392.431H639.92C639.827 392.431 639.735 392.449 639.65 392.484C639.565 392.52 639.487 392.572 639.422 392.637C639.356 392.703 639.304 392.78 639.269 392.866C639.233 392.951 639.215 393.043 639.215 393.135V396.687H628.65V393.135C628.65 393.043 628.632 392.951 628.597 392.866C628.561 392.78 628.51 392.703 628.444 392.637C628.379 392.572 628.301 392.52 628.216 392.484C628.13 392.449 628.039 392.431 627.946 392.431H611.043C610.95 392.431 610.859 392.449 610.773 392.484C610.688 392.52 610.61 392.572 610.545 392.637C610.479 392.703 610.427 392.78 610.392 392.866C610.356 392.951 610.338 393.043 610.338 393.135V396.687H599.773V393.135C599.773 393.043 599.755 392.951 599.72 392.866C599.685 392.78 599.633 392.703 599.567 392.637C599.502 392.572 599.424 392.52 599.339 392.484C599.253 392.449 599.162 392.431 599.069 392.431H582.166C582.073 392.431 581.982 392.449 581.896 392.484C581.811 392.52 581.733 392.572 581.668 392.637C581.602 392.703 581.55 392.78 581.515 392.866C581.479 392.951 581.461 393.043 581.461 393.135V396.687H570.897V393.135C570.897 393.043 570.878 392.951 570.843 392.866C570.808 392.78 570.756 392.703 570.69 392.637C570.625 392.572 570.547 392.52 570.462 392.484C570.376 392.449 570.285 392.431 570.192 392.431H553.289C553.196 392.431 553.105 392.449 553.019 392.484C552.934 392.52 552.856 392.572 552.791 392.637C552.725 392.703 552.673 392.78 552.638 392.866C552.603 392.951 552.584 393.043 552.584 393.135V396.687H542.02V393.135C542.02 393.043 542.001 392.951 541.966 392.866C541.931 392.78 541.879 392.703 541.813 392.637C541.748 392.572 541.67 392.52 541.585 392.484C541.499 392.449 541.408 392.431 541.315 392.431H408.904C408.811 392.431 408.72 392.449 408.634 392.484C408.549 392.52 408.471 392.572 408.406 392.637C408.34 392.703 408.289 392.78 408.253 392.866C408.218 392.951 408.2 393.043 408.2 393.135V396.687H397.635V393.135C397.635 393.043 397.617 392.951 397.581 392.866C397.546 392.78 397.494 392.703 397.429 392.637C397.363 392.572 397.286 392.52 397.2 392.484C397.115 392.449 397.023 392.431 396.931 392.431H380.027C379.934 392.431 379.843 392.449 379.757 392.484C379.672 392.52 379.594 392.572 379.529 392.637C379.464 392.703 379.412 392.78 379.376 392.866C379.341 392.951 379.323 393.043 379.323 393.135V396.687H368.758V393.135C368.758 393.043 368.74 392.951 368.704 392.866C368.669 392.78 368.617 392.703 368.552 392.637C368.486 392.572 368.409 392.52 368.323 392.484C368.238 392.449 368.146 392.431 368.054 392.431H351.15C351.058 392.431 350.966 392.449 350.88 392.484C350.795 392.52 350.717 392.572 350.652 392.637C350.587 392.703 350.535 392.78 350.499 392.866C350.464 392.951 350.446 393.043 350.446 393.135V396.687H339.881V393.135C339.881 393.043 339.863 392.951 339.827 392.866C339.792 392.78 339.74 392.703 339.675 392.637C339.609 392.572 339.532 392.52 339.446 392.484C339.361 392.449 339.269 392.431 339.177 392.431H322.273C322.181 392.431 322.089 392.449 322.004 392.484C321.918 392.52 321.84 392.572 321.775 392.637C321.71 392.703 321.658 392.78 321.622 392.866C321.587 392.951 321.569 393.043 321.569 393.135V396.687H311.004V393.135C311.004 393.043 310.986 392.951 310.95 392.866C310.915 392.78 310.863 392.703 310.798 392.637C310.732 392.572 310.655 392.52 310.569 392.484C310.484 392.449 310.392 392.431 310.3 392.431H293.396C293.304 392.431 293.212 392.449 293.127 392.484C293.041 392.52 292.963 392.572 292.898 392.637C292.833 392.703 292.781 392.78 292.745 392.866C292.71 392.951 292.692 393.043 292.692 393.135V396.687H282.127V393.135C282.127 393.043 282.109 392.951 282.073 392.866C282.038 392.78 281.986 392.703 281.921 392.637C281.855 392.572 281.778 392.52 281.692 392.484C281.607 392.449 281.515 392.431 281.423 392.431H264.519C264.427 392.431 264.335 392.449 264.25 392.484C264.164 392.52 264.087 392.572 264.021 392.637C263.956 392.703 263.904 392.78 263.868 392.866C263.833 392.951 263.815 393.043 263.815 393.135V396.687H253.25V393.135C253.25 393.043 253.232 392.951 253.196 392.866C253.161 392.78 253.109 392.703 253.044 392.637C252.978 392.572 252.901 392.52 252.815 392.484C252.73 392.449 252.638 392.431 252.546 392.431H235.642C235.55 392.431 235.458 392.449 235.373 392.484C235.287 392.52 235.21 392.572 235.144 392.637C235.079 392.703 235.027 392.78 234.991 392.866C234.956 392.951 234.938 393.043 234.938 393.135V396.687H202.539C200.32 396.687 198.121 397.125 196.071 397.974C194.02 398.824 192.156 400.069 190.587 401.638C189.017 403.208 187.772 405.071 186.922 407.122C186.073 409.173 185.636 411.371 185.636 413.591V421.234C185.636 425.717 187.417 430.017 190.587 433.187C193.757 436.357 198.056 438.138 202.539 438.138H764.583C769.067 438.138 773.366 436.357 776.536 433.187C779.706 430.017 781.487 425.717 781.487 421.234V413.591C781.487 411.371 781.05 409.173 780.2 407.122C779.351 405.071 778.106 403.208 776.536 401.638C774.966 400.069 773.103 398.824 771.052 397.974C769.001 397.125 766.803 396.687 764.583 396.687Z" fill="#3F3D56"/>
        <path d="M640.5 317.948H303.5V319.948H640.5V317.948Z" fill="white"/>
        <path d="M327.5 316.948H244.5C247.156 285.671 247.156 254.225 244.5 222.948H327.5C322.93 255.142 322.663 286.526 327.5 316.948Z" fill="#D0CDE1"/>
        <path d="M316.5 241.948H256.5V245.948H316.5V241.948Z" fill="#3F3D56"/>
        <path d="M316.5 254.948H256.5V258.948H316.5V254.948Z" fill="#3F3D56"/>
        <path d="M316.5 267.948H256.5V271.948H316.5V267.948Z" fill="#3F3D56"/>
        <path d="M316.5 280.948H256.5V284.948H316.5V280.948Z" fill="#3F3D56"/>
        <path d="M316.5 293.948H256.5V297.948H316.5V293.948Z" fill="#3F3D56"/>
        <path d="M106.944 3.20737C106.944 3.20737 93.9031 -1.4502 85.5195 17.18C77.1359 35.8102 64.0947 56.3035 64.0947 56.3035L71.5468 58.1665C71.5468 58.1665 73.4098 45.1253 78.0674 43.2623L76.2044 60.0295C76.2044 60.0295 132.095 79.5912 157.246 58.1665L156.314 51.6459C156.314 51.6459 160.04 52.5774 160.04 58.1665L162.835 55.372C162.835 55.372 160.04 49.7829 151.657 42.3308C146.154 37.4396 144.263 28.1341 143.613 22.3161C143.127 17.4581 141.183 12.8606 138.037 9.12657C132.466 2.66972 122.314 -4.19297 106.944 3.20737Z" fill="#2F2E41"/>
        <path d="M69.335 414.136L73.335 437.136L89.335 434.136L92.335 414.136H69.335Z" fill="#FFB9B9"/>
        <path d="M92.3349 427.136L70.3349 429.136L71.3349 447.136L70.3349 470.136C70.3349 470.136 57.3349 496.136 76.3349 494.136C95.3349 492.136 93.3349 482.136 93.3349 482.136L98.3349 476.136L95.3349 461.136L92.3349 427.136Z" fill="#2F2E41"/>
        <path d="M159.335 414.136L155.335 437.136L139.335 434.136L136.335 414.136H159.335Z" fill="#FFB9B9"/>
        <path d="M136.335 427.136L158.335 429.136L157.335 447.136L158.335 470.136C158.335 470.136 171.335 496.136 152.335 494.136C133.335 492.136 135.335 482.136 135.335 482.136L130.335 476.136L133.335 461.136L136.335 427.136Z" fill="#2F2E41"/>
        <path d="M113.335 65.1362C126.037 65.1362 136.335 54.8388 136.335 42.1362C136.335 29.4337 126.037 19.1362 113.335 19.1362C100.632 19.1362 90.3348 29.4337 90.3348 42.1362C90.3348 54.8388 100.632 65.1362 113.335 65.1362Z" fill="#FFB9B9"/>
        <path d="M98.3348 54.1362L101.335 90.1362L129.335 89.1362C129.335 89.1362 121.335 66.1362 126.335 57.1362L98.3348 54.1362Z" fill="#FFB9B9"/>
        <path d="M114.335 83.1362L125.853 75.9525L138.335 82.1362L158.335 91.1362L151.335 176.136C151.335 176.136 167.335 229.136 164.335 255.136C161.335 281.136 197.335 411.136 168.335 417.136C139.335 423.136 118.335 429.136 117.335 419.136C116.335 409.136 114.335 256.136 114.335 256.136C114.335 256.136 111.335 418.136 99.3348 420.136C87.3348 422.136 35.3348 430.136 39.3348 418.136C43.3348 406.136 70.3348 196.136 83.3348 184.136L85.3348 174.136L68.3348 93.1362L100.259 77.2256L114.335 83.1362Z" fill="#2F2E41"/>
        <path d="M54.335 207.136L53.335 248.136C53.335 248.136 43.7089 288.615 60.0219 288.376C76.3349 288.136 64.335 248.136 64.335 248.136L71.335 208.136L54.335 207.136Z" fill="#FFB9B9"/>
        <path d="M205.548 164.105L233.652 193.975C233.652 193.975 267.832 217.7 255.522 228.407C243.212 239.114 225.459 201.315 225.459 201.315L193.554 176.194L205.548 164.105Z" fill="#FFB9B9"/>
        <path d="M83.835 181.636L152.325 179.536L151.435 174.886V174.866L85.235 173.666L83.835 181.636Z" fill="#D0CDE1"/>
        <path d="M97.8348 183.636C101.149 183.636 103.835 180.95 103.835 177.636C103.835 174.323 101.149 171.636 97.8348 171.636C94.5211 171.636 91.8348 174.323 91.8348 177.636C91.8348 180.95 94.5211 183.636 97.8348 183.636Z" fill="#2F2E41"/>
        <path d="M76.3349 94.1362L69.8349 92.6362C69.8349 92.6362 61.3349 96.1362 59.3349 107.136C57.3349 118.136 31.3349 204.136 44.3349 209.136C57.3349 214.136 76.3349 216.136 76.3349 214.136C76.3349 212.136 84.3349 137.136 84.3349 137.136L76.3349 94.1362Z" fill="#2F2E41"/>
        <path d="M137.5 97.948L158.335 91.1362C158.335 91.1362 168.335 91.1362 168.335 102.136C168.335 106.674 187.5 143.948 187.5 143.948C187.5 143.948 233.55 176.773 226.5 177.948C214.5 179.948 207.5 200.948 207.5 200.948L162.5 160.948L137.5 97.948Z" fill="#2F2E41"/>
        <path d="M85.2835 43.8491C85.2835 43.8491 92.7356 33.6024 99.2562 31.7394C105.777 29.8764 106.708 20.5613 106.708 20.5613C106.708 20.5613 123.475 39.1915 133.722 40.123C143.969 41.0544 134.654 17.7667 134.654 17.7667L116.023 13.1092L98.3247 14.9722L84.3521 24.2873L85.2835 43.8491Z" fill="#2F2E41"/>
        <path d="M90.8348 43.1362C92.4917 43.1362 93.8348 41.1215 93.8348 38.6362C93.8348 36.1509 92.4917 34.1362 90.8348 34.1362C89.178 34.1362 87.8348 36.1509 87.8348 38.6362C87.8348 41.1215 89.178 43.1362 90.8348 43.1362Z" fill="#FFB9B9"/>
    </g>
    <defs>
        <clipPath id="clip0">
            <rect width="844.5" height="494.246" fill="white"/>
        </clipPath>
    </defs>
</svg>
